<svg aria-hidden="true" style="position: absolute; width: 0; height: 0; overflow: hidden;" version="1.1" xmlns="http://www.w3.org/2000/svg" xmlns:xlink="http://www.w3.org/1999/xlink">
    <defs>
        <symbol id="location" viewBox="0 -2 34 34">
            <path d="M16 0c-5.523 0-10 4.477-10 10 0 10 10 22 10 22s10-12 10-22c0-5.523-4.477-10-10-10zM16 16c-3.314 0-6-2.686-6-6s2.686-6 6-6 6 2.686 6 6-2.686 6-6 6z"></path>
        </symbol>
        <symbol id="mail" viewBox="0 0 24 24">
            <path d="M3 7.921l8.427 5.899c0.34 0.235 0.795 0.246 1.147 0l8.426-5.899v10.079c0 0.272-0.11 0.521-0.295 0.705s-0.433 0.295-0.705 0.295h-16c-0.272 0-0.521-0.11-0.705-0.295s-0.295-0.433-0.295-0.705zM1 5.983c0 0.010 0 0.020 0 0.030v11.987c0 0.828 0.34 1.579 0.88 2.12s1.292 0.88 2.12 0.88h16c0.828 0 1.579-0.34 2.12-0.88s0.88-1.292 0.88-2.12v-11.988c0-0.010 0-0.020 0-0.030-0.005-0.821-0.343-1.565-0.88-2.102-0.541-0.54-1.292-0.88-2.12-0.88h-16c-0.828 0-1.579 0.34-2.12 0.88-0.537 0.537-0.875 1.281-0.88 2.103zM20.894 5.554l-8.894 6.225-8.894-6.225c0.048-0.096 0.112-0.183 0.188-0.259 0.185-0.185 0.434-0.295 0.706-0.295h16c0.272 0 0.521 0.11 0.705 0.295 0.076 0.076 0.14 0.164 0.188 0.259z"></path>
        </symbol>
        <symbol id="phone" viewBox="0 0 46 46">
            <path d="M44 36.293C44 37.049 43.8317 37.826 43.4742 38.582C43.1167 39.338 42.654 40.052 42.0441 40.724C41.0135 41.858 39.8778 42.677 38.5949 43.202C37.333 43.727 35.966 44 34.4937 44C32.3485 44 30.0561 43.496 27.6375 42.467C25.2188 41.438 22.8002 40.052 20.4026 38.309C17.984 36.545 15.6915 34.592 13.5043 32.429C11.338 30.245 9.38207 27.956 7.63645 25.562C5.91187 23.168 4.52379 20.774 3.51427 18.401C2.50476 16.007 2 13.718 2 11.534C2 10.106 2.25238 8.741 2.75714 7.481C3.26189 6.2 4.06109 5.024 5.17576 3.974C6.52178 2.651 7.99399 2 9.55033 2C10.1392 2 10.7281 2.126 11.2539 2.378C11.8007 2.63 12.2844 3.008 12.663 3.554L17.5423 10.421C17.9209 10.946 18.1943 11.429 18.3836 11.891C18.5729 12.332 18.678 12.773 18.678 13.172C18.678 13.676 18.5308 14.18 18.2364 14.663C17.9629 15.146 17.5633 15.65 17.0586 16.154L15.4602 17.813C15.2288 18.044 15.1237 18.317 15.1237 18.653C15.1237 18.821 15.1447 18.968 15.1868 19.136C15.2499 19.304 15.313 19.43 15.355 19.556C15.7336 20.249 16.3856 21.152 17.311 22.244C18.2574 23.336 19.2669 24.449 20.3605 25.562C21.4962 26.675 22.5899 27.704 23.7046 28.649C24.7982 29.573 25.7026 30.203 26.4176 30.581C26.5228 30.623 26.649 30.686 26.7962 30.749C26.9644 30.812 27.1327 30.833 27.322 30.833C27.6795 30.833 27.9529 30.707 28.1843 30.476L29.7827 28.901C30.3085 28.376 30.8132 27.977 31.2969 27.725C31.7807 27.431 32.2644 27.284 32.7902 27.284C33.1898 27.284 33.6104 27.368 34.0731 27.557C34.5358 27.746 35.0195 28.019 35.5453 28.376L42.5068 33.311C43.0536 33.689 43.4322 34.13 43.6635 34.655C43.8738 35.18 44 35.705 44 36.293Z" stroke-width="4" stroke-miterlimit="10"/>
        </symbol>
        <symbol id="instagram" viewBox="0 0 32 32" >
            <path d="M16 2.881c4.275 0 4.781 0.019 6.462 0.094 1.563 0.069 2.406 0.331 2.969 0.55 0.744 0.288 1.281 0.638 1.837 1.194 0.563 0.563 0.906 1.094 1.2 1.838 0.219 0.563 0.481 1.412 0.55 2.969 0.075 1.688 0.094 2.194 0.094 6.463s-0.019 4.781-0.094 6.463c-0.069 1.563-0.331 2.406-0.55 2.969-0.288 0.744-0.637 1.281-1.194 1.837-0.563 0.563-1.094 0.906-1.837 1.2-0.563 0.219-1.413 0.481-2.969 0.55-1.688 0.075-2.194 0.094-6.463 0.094s-4.781-0.019-6.463-0.094c-1.563-0.069-2.406-0.331-2.969-0.55-0.744-0.288-1.281-0.637-1.838-1.194-0.563-0.563-0.906-1.094-1.2-1.837-0.219-0.563-0.481-1.413-0.55-2.969-0.075-1.688-0.094-2.194-0.094-6.463s0.019-4.781 0.094-6.463c0.069-1.563 0.331-2.406 0.55-2.969 0.288-0.744 0.638-1.281 1.194-1.838 0.563-0.563 1.094-0.906 1.838-1.2 0.563-0.219 1.412-0.481 2.969-0.55 1.681-0.075 2.188-0.094 6.463-0.094zM16 0c-4.344 0-4.887 0.019-6.594 0.094-1.7 0.075-2.869 0.35-3.881 0.744-1.056 0.412-1.95 0.956-2.837 1.85-0.894 0.888-1.438 1.781-1.85 2.831-0.394 1.019-0.669 2.181-0.744 3.881-0.075 1.713-0.094 2.256-0.094 6.6s0.019 4.887 0.094 6.594c0.075 1.7 0.35 2.869 0.744 3.881 0.413 1.056 0.956 1.95 1.85 2.837 0.887 0.887 1.781 1.438 2.831 1.844 1.019 0.394 2.181 0.669 3.881 0.744 1.706 0.075 2.25 0.094 6.594 0.094s4.888-0.019 6.594-0.094c1.7-0.075 2.869-0.35 3.881-0.744 1.050-0.406 1.944-0.956 2.831-1.844s1.438-1.781 1.844-2.831c0.394-1.019 0.669-2.181 0.744-3.881 0.075-1.706 0.094-2.25 0.094-6.594s-0.019-4.887-0.094-6.594c-0.075-1.7-0.35-2.869-0.744-3.881-0.394-1.063-0.938-1.956-1.831-2.844-0.887-0.887-1.781-1.438-2.831-1.844-1.019-0.394-2.181-0.669-3.881-0.744-1.712-0.081-2.256-0.1-6.6-0.1v0z"></path>
            <path d="M16 7.781c-4.537 0-8.219 3.681-8.219 8.219s3.681 8.219 8.219 8.219 8.219-3.681 8.219-8.219c0-4.537-3.681-8.219-8.219-8.219zM16 21.331c-2.944 0-5.331-2.387-5.331-5.331s2.387-5.331 5.331-5.331c2.944 0 5.331 2.387 5.331 5.331s-2.387 5.331-5.331 5.331z"></path>
            <path d="M26.462 7.456c0 1.060-0.859 1.919-1.919 1.919s-1.919-0.859-1.919-1.919c0-1.060 0.859-1.919 1.919-1.919s1.919 0.859 1.919 1.919z"></path>
        </symbol>
        <symbol id="twitter" viewBox="0 0 24 24">
            <path d="M20.833 5.262c-0.186 0.242-0.391 0.475-0.616 0.696-0.233 0.232-0.347 0.567-0.278 0.908 0.037 0.182 0.060 0.404 0.061 0.634 0 5.256-2.429 8.971-5.81 10.898-2.647 1.509-5.938 1.955-9.222 1.12 1.245-0.361 2.46-0.921 3.593-1.69 0.147-0.099 0.273-0.243 0.352-0.421 0.224-0.505-0.003-1.096-0.508-1.32-2.774-1.233-4.13-2.931-4.769-4.593-0.417-1.084-0.546-2.198-0.52-3.227 0.021-0.811 0.138-1.56 0.278-2.182 0.394 0.343 0.803 0.706 1.235 1.038 2.051 1.577 4.624 2.479 7.395 2.407 0.543-0.015 0.976-0.457 0.976-1v-1.011c-0.002-0.179 0.009-0.357 0.034-0.533 0.113-0.806 0.504-1.569 1.162-2.141 0.725-0.631 1.636-0.908 2.526-0.846s1.753 0.463 2.384 1.188c0.252 0.286 0.649 0.416 1.033 0.304 0.231-0.067 0.463-0.143 0.695-0.228zM22.424 2.183c-0.74 0.522-1.523 0.926-2.287 1.205-0.931-0.836-2.091-1.302-3.276-1.385-1.398-0.097-2.836 0.339-3.977 1.332-1.036 0.901-1.652 2.108-1.83 3.372-0.037 0.265-0.055 0.532-0.054 0.8-1.922-0.142-3.693-0.85-5.15-1.97-0.775-0.596-1.462-1.309-2.034-2.116-0.32-0.45-0.944-0.557-1.394-0.237-0.154 0.109-0.267 0.253-0.335 0.409 0 0-0.132 0.299-0.285 0.76-0.112 0.337-0.241 0.775-0.357 1.29-0.163 0.722-0.302 1.602-0.326 2.571-0.031 1.227 0.12 2.612 0.652 3.996 0.683 1.775 1.966 3.478 4.147 4.823-1.569 0.726-3.245 1.039-4.873 0.967-0.552-0.024-1.019 0.403-1.043 0.955-0.017 0.389 0.19 0.736 0.513 0.918 4.905 2.725 10.426 2.678 14.666 0.261 4.040-2.301 6.819-6.7 6.819-12.634-0.001-0.167-0.008-0.33-0.023-0.489 1.006-1.115 1.676-2.429 1.996-3.781 0.127-0.537-0.206-1.076-0.743-1.203-0.29-0.069-0.58-0.003-0.807 0.156z"></path>
        </symbol>
        <symbol id="facebook" viewBox="0 -2 32 34">
            <path d="M19 6h5v-6h-5c-3.86 0-7 3.14-7 7v3h-4v6h4v16h6v-16h5l1-6h-6v-3c0-0.542 0.458-1 1-1z" ></path>
        </symbol>
        <symbol id="home" viewBox="0 0 50 45" xmlns="http://www.w3.org/2000/svg">
        <path d="M2 16.0556L25 2L48 16.0556" stroke-width="4" stroke-linecap="round" stroke-linejoin="round"/>
        <path d="M42.8889 25V41.3556C42.8889 42.2025 42.2024 42.8889 41.3555 42.8889H8.64442C7.79758 42.8889 7.11108 42.2025 7.11108 41.3556V25" stroke-width="4" stroke-linecap="round" stroke-linejoin="round"/>
        </symbol>
        <symbol id="sun" viewBox="0 0 48 48" xmlns="http://www.w3.org/2000/svg">
            <path d="M24 36C30.6274 36 36 30.6274 36 24C36 17.3726 30.6274 12 24 12C17.3726 12 12 17.3726 12 24C12 30.6274 17.3726 36 24 36Z" stroke-width="4" stroke-linecap="round" stroke-linejoin="round"/>
            <path d="M43.9998 24.0001H45.9998" stroke-width="4" stroke-linecap="round" stroke-linejoin="round"/>
            <path d="M24 4V2" stroke-width="4" stroke-linecap="round" stroke-linejoin="round"/>
            <path d="M24 46V44" stroke-width="4" stroke-linecap="round" stroke-linejoin="round"/>
            <path d="M39.9998 40.0001L37.9998 38.0001" stroke-width="4" stroke-linecap="round" stroke-linejoin="round"/>
            <path d="M39.9998 7.99994L37.9998 9.99994" stroke-width="4" stroke-linecap="round" stroke-linejoin="round"/>
            <path d="M8 40.0001L10 38.0001" stroke-width="4" stroke-linecap="round" stroke-linejoin="round"/>
            <path d="M8 7.99994L10 9.99994" stroke-width="4" stroke-linecap="round" stroke-linejoin="round"/>
            <path d="M2 24.0001H4" stroke-width="4" stroke-linecap="round" stroke-linejoin="round"/>
        </symbol>
        <symbol id="fax" viewBox="0 0 46 46"  xmlns="http://www.w3.org/2000/svg">
            <path d="M15.8125 5.75C14.6688 5.75 13.5719 6.20435 12.7631 7.0131C11.9544 7.82185 11.5 8.91875 11.5 10.0625V17.25C9.97501 17.25 8.51247 17.8558 7.43414 18.9341C6.3558 20.0125 5.75 21.475 5.75 23V35.9375C5.75 37.0812 6.20435 38.1781 7.0131 38.9869C7.82185 39.7956 8.91875 40.25 10.0625 40.25H27.3125C26.6729 39.3998 26.2309 38.4176 26.0188 37.375H10.0625C9.68125 37.375 9.31562 37.2236 9.04603 36.954C8.77645 36.6844 8.625 36.3187 8.625 35.9375V23C8.625 22.2375 8.9279 21.5062 9.46707 20.9671C10.0062 20.4279 10.7375 20.125 11.5 20.125H26.0188C26.2344 19.0612 26.6829 18.0837 27.3125 17.25H14.375V10.0625C14.375 9.68125 14.5265 9.31562 14.796 9.04603C15.0656 8.77645 15.4313 8.625 15.8125 8.625H30.1875C30.5687 8.625 30.9344 8.77645 31.204 9.04603C31.4736 9.31562 31.625 9.68125 31.625 10.0625V14.5188C32.0908 14.4239 32.5709 14.375 33.0625 14.375H34.5V10.0625C34.5 8.91875 34.0456 7.82185 33.2369 7.0131C32.4281 6.20435 31.3312 5.75 30.1875 5.75H15.8125ZM33.0625 17.25C31.9188 17.25 30.8219 17.7044 30.0131 18.5131C29.2044 19.3219 28.75 20.4188 28.75 21.5625V35.9375C28.75 37.0812 29.2044 38.1781 30.0131 38.9869C30.8219 39.7956 31.9188 40.25 33.0625 40.25H35.9375C37.0812 40.25 38.1781 39.7956 38.9869 38.9869C39.7956 38.1781 40.25 37.0812 40.25 35.9375V21.5625C40.25 20.4188 39.7956 19.3219 38.9869 18.5131C38.1781 17.7044 37.0812 17.25 35.9375 17.25H33.0625ZM31.625 21.5625C31.625 21.1813 31.7764 20.8156 32.046 20.546C32.3156 20.2765 32.6813 20.125 33.0625 20.125H35.9375C36.3187 20.125 36.6844 20.2765 36.954 20.546C37.2236 20.8156 37.375 21.1813 37.375 21.5625V35.9375C37.375 36.3187 37.2236 36.6844 36.954 36.954C36.6844 37.2236 36.3187 37.375 35.9375 37.375H33.0625C32.6813 37.375 32.3156 37.2236 32.046 36.954C31.7764 36.6844 31.625 36.3187 31.625 35.9375V21.5625ZM14.375 24.4375C14.375 24.8187 14.2235 25.1844 13.954 25.454C13.6844 25.7236 13.3187 25.875 12.9375 25.875C12.5563 25.875 12.1906 25.7236 11.921 25.454C11.6515 25.1844 11.5 24.8187 11.5 24.4375C11.5 24.0563 11.6515 23.6906 11.921 23.421C12.1906 23.1514 12.5563 23 12.9375 23C13.3187 23 13.6844 23.1514 13.954 23.421C14.2235 23.6906 14.375 24.0563 14.375 24.4375ZM12.9375 31.625C13.3187 31.625 13.6844 31.4736 13.954 31.204C14.2235 30.9344 14.375 30.5687 14.375 30.1875C14.375 29.8063 14.2235 29.4406 13.954 29.171C13.6844 28.9014 13.3187 28.75 12.9375 28.75C12.5563 28.75 12.1906 28.9014 11.921 29.171C11.6515 29.4406 11.5 29.8063 11.5 30.1875C11.5 30.5687 11.6515 30.9344 11.921 31.204C12.1906 31.4736 12.5563 31.625 12.9375 31.625ZM20.125 24.4375C20.125 24.8187 19.9735 25.1844 19.704 25.454C19.4344 25.7236 19.0687 25.875 18.6875 25.875C18.3063 25.875 17.9406 25.7236 17.671 25.454C17.4015 25.1844 17.25 24.8187 17.25 24.4375C17.25 24.0563 17.4015 23.6906 17.671 23.421C17.9406 23.1514 18.3063 23 18.6875 23C19.0687 23 19.4344 23.1514 19.704 23.421C19.9735 23.6906 20.125 24.0563 20.125 24.4375ZM18.6875 31.625C19.0687 31.625 19.4344 31.4736 19.704 31.204C19.9735 30.9344 20.125 30.5687 20.125 30.1875C20.125 29.8063 19.9735 29.4406 19.704 29.171C19.4344 28.9014 19.0687 28.75 18.6875 28.75C18.3063 28.75 17.9406 28.9014 17.671 29.171C17.4015 29.4406 17.25 29.8063 17.25 30.1875C17.25 30.5687 17.4015 30.9344 17.671 31.204C17.9406 31.4736 18.3063 31.625 18.6875 31.625Z" />
        </symbol>
        <symbol id="gsm" viewBox="0 0 41 41" xmlns="http://www.w3.org/2000/svg">
            <path d="M7.17498 22.5498C7.17485 20.359 7.71488 18.202 8.74724 16.2698C9.7796 14.3375 11.2725 12.6896 13.0936 11.4719C14.9148 10.2543 17.0081 9.50439 19.1882 9.28872C21.3683 9.07305 23.568 9.39824 25.5924 10.2355C27.6169 11.0727 29.4037 12.3962 30.7946 14.0887C32.1856 15.7813 33.1378 17.7907 33.5669 19.939C33.996 22.0873 33.8888 24.3083 33.2548 26.4053C32.6208 28.5023 31.4795 30.4106 29.932 31.9613C29.7894 32.1043 29.6762 32.2739 29.5991 32.4606C29.522 32.6473 29.4824 32.8473 29.4826 33.0493C29.4828 33.2513 29.5228 33.4512 29.6002 33.6377C29.6777 33.8243 29.7911 33.9937 29.9341 34.1364C30.077 34.2791 30.2467 34.3922 30.4334 34.4693C30.62 34.5464 30.8201 34.586 31.022 34.5858C31.224 34.5856 31.424 34.5457 31.6105 34.4682C31.797 34.3907 31.9665 34.2773 32.1091 34.1343C34.3991 31.8393 35.9576 28.9171 36.5875 25.7368C37.2174 22.5564 36.8905 19.2608 35.6482 16.2661C34.4059 13.2715 32.3038 10.7123 29.6076 8.91181C26.9114 7.11133 23.7421 6.15039 20.5 6.15039C17.2579 6.15039 14.0885 7.11133 11.3923 8.91181C8.69614 10.7123 6.5941 13.2715 5.35177 16.2661C4.10945 19.2608 3.78259 22.5564 4.4125 25.7368C5.04241 28.9171 6.60082 31.8393 8.89083 34.1343C9.17926 34.4233 9.57067 34.5859 9.97896 34.5862C10.3872 34.5866 10.779 34.4248 11.0679 34.1364C11.3569 33.8479 11.5195 33.4565 11.5198 33.0483C11.5202 32.64 11.3584 32.2483 11.07 31.9593C9.83348 30.7244 8.85291 29.2575 8.18452 27.6428C7.51613 26.0281 7.17306 24.2973 7.17498 22.5498ZM13.325 22.5498C13.3251 21.3705 13.6158 20.2094 14.1715 19.1693C14.7273 18.1291 15.5308 17.242 16.511 16.5864C17.4912 15.9307 18.618 15.5268 19.7915 15.4104C20.965 15.2939 22.1491 15.4685 23.2391 15.9187C24.3291 16.3689 25.2913 17.0809 26.0406 17.9915C26.7898 18.9022 27.3031 19.9835 27.535 21.1397C27.7668 22.296 27.7101 23.4916 27.3698 24.6207C27.0295 25.7498 26.4161 26.7777 25.584 27.6133C25.4413 27.7562 25.3282 27.9259 25.2511 28.1126C25.1739 28.2992 25.1343 28.4993 25.1345 28.7012C25.1347 28.9032 25.1747 29.1032 25.2522 29.2897C25.3296 29.4762 25.4431 29.6456 25.586 29.7883C25.729 29.931 25.8986 30.0441 26.0853 30.1213C26.272 30.1984 26.472 30.238 26.674 30.2378C26.876 30.2376 27.0759 30.1976 27.2624 30.1201C27.449 30.0427 27.6184 29.9292 27.7611 29.7863C29.1911 28.3514 30.1639 26.525 30.5566 24.5376C30.9493 22.5503 30.7443 20.4911 29.9675 18.6202C29.1906 16.7493 27.8769 15.1505 26.192 14.0257C24.5071 12.901 22.5268 12.3007 20.501 12.3007C18.4752 12.3007 16.4949 12.901 14.81 14.0257C13.1252 15.1505 11.8114 16.7493 11.0346 18.6202C10.2577 20.4911 10.0527 22.5503 10.4454 24.5376C10.8381 26.525 11.8109 28.3514 13.2409 29.7863C13.5291 30.075 13.9201 30.2374 14.328 30.2378C14.7359 30.2382 15.1273 30.0765 15.416 29.7883C15.7047 29.5002 15.8671 29.1091 15.8675 28.7012C15.8679 28.2933 15.7062 27.902 15.418 27.6133C14.7533 26.9484 14.2263 26.1589 13.8671 25.29C13.508 24.4211 13.3237 23.49 13.325 22.5498ZM20.5 18.4498C19.4126 18.4498 18.3697 18.8817 17.6008 19.6506C16.8319 20.4195 16.4 21.4624 16.4 22.5498C16.4 23.6372 16.8319 24.68 17.6008 25.4489C18.3697 26.2178 19.4126 26.6498 20.5 26.6498C21.5874 26.6498 22.6302 26.2178 23.3991 25.4489C24.168 24.68 24.6 23.6372 24.6 22.5498C24.6 21.4624 24.168 20.4195 23.3991 19.6506C22.6302 18.8817 21.5874 18.4498 20.5 18.4498Z" />
        </symbol>
        <symbol id="right" viewBox="0 0 21 35" xmlns="http://www.w3.org/2000/svg">
            <path d="M3 3.06836L17.6321 17.7005" stroke-width="5" stroke-linecap="round"/>
            <path d="M3.33228 32L17.558 17.7743" stroke-width="5" stroke-linecap="round"/>
        </symbol>
        <symbol id="left" viewBox="0 0 21 35" xmlns="http://www.w3.org/2000/svg">
            <path d="M17.6321 3L2.99995 17.6321" stroke-width="5" stroke-linecap="round"/>
            <path d="M17.2998 31.9316L3.07412 17.706" stroke-width="5" stroke-linecap="round"/>
        </symbol>
        <symbol id="instagram" fill="none" viewBox="0 0 20 20">
            <g id="mdi:instagram">
            <path id="Vector" d="M7.8 4H16.2C19.4 4 22 6.6 22 9.8V18.2C22 19.7383 21.3889 21.2135 20.3012 22.3012C19.2135 23.3889 17.7383 24 16.2 24H7.8C4.6 24 2 21.4 2 18.2V9.8C2 8.26174 2.61107 6.78649 3.69878 5.69878C4.78649 4.61107 6.26174 4 7.8 4ZM7.6 6C6.64522 6 5.72955 6.37928 5.05442 7.05442C4.37928 7.72955 4 8.64522 4 9.6V18.4C4 20.39 5.61 22 7.6 22H16.4C17.3548 22 18.2705 21.6207 18.9456 20.9456C19.6207 20.2705 20 19.3548 20 18.4V9.6C20 7.61 18.39 6 16.4 6H7.6ZM17.25 7.5C17.5815 7.5 17.8995 7.6317 18.1339 7.86612C18.3683 8.10054 18.5 8.41848 18.5 8.75C18.5 9.08152 18.3683 9.39946 18.1339 9.63388C17.8995 9.8683 17.5815 10 17.25 10C16.9185 10 16.6005 9.8683 16.3661 9.63388C16.1317 9.39946 16 9.08152 16 8.75C16 8.41848 16.1317 8.10054 16.3661 7.86612C16.6005 7.6317 16.9185 7.5 17.25 7.5ZM12 9C13.3261 9 14.5979 9.52678 15.5355 10.4645C16.4732 11.4021 17 12.6739 17 14C17 15.3261 16.4732 16.5979 15.5355 17.5355C14.5979 18.4732 13.3261 19 12 19C10.6739 19 9.40215 18.4732 8.46447 17.5355C7.52678 16.5979 7 15.3261 7 14C7 12.6739 7.52678 11.4021 8.46447 10.4645C9.40215 9.52678 10.6739 9 12 9ZM12 11C11.2044 11 10.4413 11.3161 9.87868 11.8787C9.31607 12.4413 9 13.2044 9 14C9 14.7956 9.31607 15.5587 9.87868 16.1213C10.4413 16.6839 11.2044 17 12 17C12.7956 17 13.5587 16.6839 14.1213 16.1213C14.6839 15.5587 15 14.7956 15 14C15 13.2044 14.6839 12.4413 14.1213 11.8787C13.5587 11.3161 12.7956 11 12 11Z" fill="url(#paint0_linear_119_455)"/>
            </g>
            <defs>
            <linearGradient id="paint0_linear_119_455" x1="4" y1="5.5" x2="22" y2="24" gradientUnits="userSpaceOnUse">
            <stop stop-color="#FEAF75"/>
            <stop offset="1" stop-color="#962FBF"/>
            </linearGradient>
            </defs>
        </symbol>
    </defs>
</svg>